<svg width="20" height="20" viewBox="0 0 20 20" fill="none" xmlns="http://www.w3.org/2000/svg">
<g clip-path="url(#clip0)">
<path d="M6.97425 13.768V15H0.47825V13.768H3.18225V5.592L0.69425 7.112L0.0302501 6.024L3.35825 3.976H4.71025V13.768H6.97425ZM13 3.776C14.2053 3.776 15.1173 4.272 15.736 5.264C16.36 6.25067 16.672 7.656 16.672 9.48C16.672 11.3093 16.36 12.72 15.736 13.712C15.1173 14.704 14.2053 15.2 13 15.2C11.7947 15.2 10.88 14.704 10.256 13.712C9.63733 12.72 9.328 11.3093 9.328 9.48C9.328 7.656 9.63733 6.25067 10.256 5.264C10.88 4.272 11.7947 3.776 13 3.776ZM13 4.984C12.344 4.984 11.8293 5.33333 11.456 6.032C11.088 6.73067 10.904 7.88 10.904 9.48C10.904 10.664 10.9867 11.592 11.152 12.264L14.416 5.664C14.096 5.21067 13.624 4.984 13 4.984ZM15.096 9.48C15.096 8.33333 15.0187 7.432 14.864 6.776L11.624 13.36C11.944 13.7813 12.4027 13.992 13 13.992C13.6667 13.992 14.1813 13.6427 14.544 12.944C14.912 12.24 15.096 11.0853 15.096 9.48Z" fill="#777777" fill-opacity="0.02"/>
</g>
<defs>
<clipPath id="clip0">
<rect width="20" height="20" fill="white"/>
</clipPath>
</defs>
</svg>
