<svg width="655" height="705" viewBox="0 0 655 705" fill="none" xmlns="http://www.w3.org/2000/svg">
<path fill-rule="evenodd" clip-rule="evenodd" d="M290.648 61.0893C353.564 53.6118 415.076 -12.7327 471.826 15.4425C527.396 43.0321 510.298 130.807 540.373 185.072C569.728 238.04 637.986 269.192 645.742 329.251C653.543 389.665 621.175 451.216 580.611 496.661C542.726 539.107 476.935 538.493 430.12 570.825C377.656 607.058 354.408 697.043 290.648 696.919C226.843 696.794 199.693 612.084 151.49 570.28C113.354 537.207 59.1439 521.125 36.1335 476.195C13.3849 431.776 31.5466 379.034 28.0507 329.251C24.2517 275.151 -4.76255 220.538 14.6239 169.889C34.5352 117.868 80.9169 76.1685 132.738 55.7425C182.585 36.0945 237.443 67.4127 290.648 61.0893Z" fill="#56D4B7" stroke="black" stroke-width="16"/>
</svg>
