<svg height="512pt" viewBox="-64 0 512 512" width="512pt" xmlns="http://www.w3.org/2000/svg"><path d="m288 176c0 61.855469-50.144531 112-112 112s-112-50.144531-112-112 50.144531-112 112-112 112 50.144531 112 112zm0 0" fill="#80deea"/><path d="m256 176c0 44.183594-35.816406 80-80 80s-80-35.816406-80-80 35.816406-80 80-80 80 35.816406 80 80zm0 0" fill="#40a2e7"/><path d="m328 512h-208l-56-74.671875v-69.328125c0-38.640625 27.535156-70.960938 64-78.382812v-113.617188c0-26.464844 21.535156-48 48-48s48 21.535156 48 48v84.097656l160 48v129.246094zm0 0" fill="#ecce93"/><path d="m40.65625 288.320312c-26.222656-31.519531-40.65625-71.390624-40.65625-112.320312 0-97.039062 78.960938-176 176-176l1.070312 32c-80.476562 0-145.070312 64.609375-145.070312 144 0 33.457031 11.808594 66.0625 33.246094 91.839844zm296.734375-42.417968-29.34375-12.75c7.9375-18.257813 11.953125-37.488282 11.953125-57.152344-.015625-27.3125-7.726562-53.902344-22.335938-76.910156l27.007813-17.152344c17.855469 28.125 27.3125 60.65625 27.328125 94.0625 0 24.078125-4.929688 47.601562-14.609375 69.902344zm-57.46875-169.4375c-6.691406-6.960938-14.066406-13.25-21.90625-18.722656l18.320313-26.253907c9.550781 6.65625 18.511718 14.335938 26.65625 22.800781zm-46.992187-32.722656c-8.816407-3.804688-18.019532-6.734376-27.394532-8.703126l6.59375-31.3125c11.457032 2.402344 22.71875 5.984376 33.488282 10.640626zm0 0" fill="#40a2e7"/><path d="m160 368v-237.054688c-18.574219 6.621094-32 24.222657-32 45.054688v224c17.679688 0 32-14.320312 32-32zm0 0" fill="#e5bd76"/><g fill="#fff"><path d="m176 416h32v32h-32zm0 0"/><path d="m240 416h32v32h-32zm0 0"/></g></svg>