<svg width="1024" height="1024" viewBox="0 0 1024 1024" fill="none" xmlns="http://www.w3.org/2000/svg">
<g clip-path="url(#clip0_161_3112)">
<path d="M335.923 533V429.032C338.227 428.36 340.435 428.024 342.547 428.024C345.043 428.024 347.299 428.36 349.315 429.032V520.472H400.147C400.627 521.24 400.915 522.44 401.011 524.072C401.203 525.608 401.251 527.24 401.155 528.968C401.059 530.6 400.723 531.944 400.147 533H335.923ZM444.641 535.016C438.113 535.016 432.257 533.48 427.073 530.408C421.985 527.24 417.953 522.92 414.977 517.448C412.097 511.976 410.657 505.784 410.657 498.872C410.657 491.96 412.145 485.816 415.121 480.44C418.097 475.064 422.129 470.84 427.217 467.768C432.401 464.6 438.209 463.016 444.641 463.016C451.073 463.016 456.833 464.6 461.921 467.768C467.009 470.84 470.993 475.064 473.873 480.44C476.849 485.816 478.337 491.96 478.337 498.872C478.337 505.784 476.849 511.976 473.873 517.448C470.993 522.92 467.009 527.24 461.921 530.408C456.929 533.48 451.169 535.016 444.641 535.016ZM444.497 522.632C450.641 522.632 455.537 520.472 459.185 516.152C462.929 511.832 464.801 506.072 464.801 498.872C464.801 495.32 464.273 492.056 463.217 489.08C457.457 488.888 452.225 487.736 447.521 485.624C442.913 483.512 439.265 480.632 436.577 476.984C432.737 478.616 429.713 481.4 427.505 485.336C425.297 489.176 424.193 493.784 424.193 499.16C424.193 506.168 426.017 511.832 429.665 516.152C433.409 520.472 438.353 522.632 444.497 522.632ZM525.531 535.016C519.483 535.016 514.155 533.576 509.547 530.696C505.035 527.816 501.483 523.784 498.891 518.6C496.395 513.416 495.147 507.464 495.147 500.744C495.147 494.888 496.107 489.464 498.027 484.472C488.715 486.68 478.635 487.784 467.787 487.784C466.347 487.784 465.195 487.208 464.331 486.056C463.467 484.808 463.035 483.272 463.035 481.448C463.035 477.512 464.619 475.544 467.787 475.544C484.011 475.544 498.891 472.76 512.427 467.192C517.227 464.408 522.459 463.016 528.123 463.016C531.483 463.016 534.795 463.688 538.059 465.032C541.323 466.28 544.059 468.008 546.267 470.216V464.312C547.131 464.024 548.139 463.784 549.291 463.592C550.443 463.4 551.643 463.304 552.891 463.304C555.195 463.304 557.355 463.64 559.371 464.312V572.456C559.371 584.168 557.307 592.856 553.179 598.52C549.147 604.184 542.619 607.016 533.595 607.016C526.875 607.016 521.355 604.664 517.035 599.96C512.715 595.352 510.555 589.256 510.555 581.672C510.555 564.008 522.699 547.496 546.987 532.136V525.8C544.299 528.68 541.131 530.936 537.483 532.568C533.835 534.2 529.851 535.016 525.531 535.016ZM508.539 500.744C508.539 507.56 510.075 512.936 513.147 516.872C516.315 520.712 520.635 522.632 526.107 522.632C532.155 522.632 537.003 520.424 540.651 516.008C544.395 511.496 546.267 505.592 546.267 498.296V484.04C544.347 481.448 541.899 479.384 538.923 477.848C535.947 476.216 532.875 475.4 529.707 475.4C525.579 475.4 521.931 476.504 518.763 478.712C515.595 480.92 513.099 483.944 511.275 487.784C509.451 491.528 508.539 495.848 508.539 500.744ZM523.227 581.096C523.227 585.416 524.187 588.776 526.107 591.176C528.027 593.672 530.667 594.92 534.027 594.92C538.539 594.92 541.803 593 543.819 589.16C545.931 585.416 546.987 579.848 546.987 572.456V546.968C531.147 558.104 523.227 569.48 523.227 581.096ZM560.318 539.912C558.878 541.064 557.63 541.64 556.574 541.64C554.942 541.64 553.454 540.776 552.11 539.048C550.766 537.416 550.094 535.832 550.094 534.296C550.094 533.336 550.334 532.568 550.814 531.992C551.198 531.416 551.822 530.792 552.686 530.12L579.902 509.672C578.942 506.216 578.462 502.616 578.462 498.872C578.462 491.96 579.95 485.816 582.926 480.44C585.902 475.064 589.934 470.84 595.022 467.768C600.206 464.6 606.014 463.016 612.446 463.016C618.878 463.016 624.638 464.6 629.726 467.768C634.814 470.84 638.798 475.064 641.678 480.44C644.654 485.816 646.142 491.96 646.142 498.872C646.142 505.784 644.654 511.976 641.678 517.448C638.798 522.92 634.814 527.24 629.726 530.408C624.734 533.48 618.974 535.016 612.446 535.016C606.686 535.016 601.454 533.816 596.75 531.416C592.142 528.92 588.302 525.56 585.23 521.336L560.318 539.912ZM612.302 522.632C618.446 522.632 623.342 520.472 626.99 516.152C630.734 511.832 632.606 506.072 632.606 498.872C632.606 495.32 632.078 492.056 631.022 489.08C625.262 488.888 620.03 487.736 615.326 485.624C610.718 483.512 607.07 480.632 604.382 476.984C600.542 478.616 597.518 481.4 595.31 485.336C593.102 489.176 591.998 493.784 591.998 499.16C591.998 506.168 593.822 511.832 597.47 516.152C601.214 520.472 606.158 522.632 612.302 522.632ZM673.421 535.016C670.061 535.016 666.701 534.488 663.341 533.432C659.981 532.472 656.477 530.888 652.829 528.68C652.637 523.592 654.557 519.848 658.589 517.448C663.869 520.904 668.861 522.632 673.565 522.632C677.597 522.632 680.813 521.576 683.213 519.464C685.613 517.256 686.813 514.472 686.813 511.112C686.813 506.888 684.509 502.952 679.901 499.304L668.957 490.664C665.405 487.88 662.669 484.904 660.749 481.736C653.165 486.44 645.053 488.792 636.413 488.792C634.877 488.792 633.581 488.216 632.525 487.064C631.469 485.912 630.941 484.424 630.941 482.6C630.941 478.664 632.573 476.696 635.837 476.696C639.389 476.696 643.085 476.072 646.925 474.824C650.669 473.48 654.029 471.608 657.005 469.208C657.005 468.92 657.005 468.584 657.005 468.2C657.005 463.4 657.869 459.848 659.597 457.544C661.421 455.24 662.909 453.848 664.061 453.368C665.693 452.984 667.421 453.032 669.245 453.512C671.165 453.896 672.893 454.568 674.429 455.528C675.965 456.488 677.021 457.64 677.597 458.984C677.117 461.864 676.205 464.6 674.861 467.192C673.517 469.688 671.885 471.992 669.965 474.104C670.637 475.352 671.501 476.552 672.557 477.704C673.709 478.856 675.149 480.104 676.877 481.448L687.821 490.376C691.757 493.544 694.685 496.856 696.605 500.312C698.621 503.672 699.629 507.464 699.629 511.688C699.629 516.104 698.525 520.088 696.317 523.64C694.109 527.192 691.037 529.976 687.101 531.992C683.165 534.008 678.605 535.016 673.421 535.016Z" fill="#4B213B"/>
<path fill-rule="evenodd" clip-rule="evenodd" d="M726.533 678.272L726.118 681.58L719.503 680.748L718.672 687.363L751.745 691.519L752.576 684.904L745.962 684.073L746.377 680.766L766.221 683.259C769.874 683.718 773.208 681.129 773.667 677.476L778.238 641.095C778.698 637.442 776.108 634.109 772.455 633.65L712.923 626.169C709.27 625.71 705.936 628.299 705.477 631.952L700.906 668.333C700.447 671.986 703.036 675.32 706.689 675.779L726.533 678.272ZM767.052 676.645L707.52 669.164L712.092 632.783L771.624 640.264L767.052 676.645Z" fill="#4B213B"/>
<path fill-rule="evenodd" clip-rule="evenodd" d="M276.084 590.435C272.544 589.444 268.858 591.516 267.867 595.057L257.079 633.575C256.088 637.115 258.16 640.801 261.701 641.792L313.058 656.176C316.599 657.167 320.284 655.094 321.276 651.554L332.063 613.036C333.055 609.496 330.982 605.81 327.442 604.818L276.084 590.435ZM274.286 596.855L325.644 611.238L314.862 649.758L263.499 635.373L274.286 596.855ZM312.032 635.119L310.234 641.538L290.975 636.145L292.773 629.725L312.032 635.119ZM282.409 620.913L272.988 626.212L276.255 632.022L291.486 623.456L282.92 608.224L277.11 611.492L282.409 620.913Z" fill="#4B213B"/>
<path fill-rule="evenodd" clip-rule="evenodd" d="M616.016 779.896C618.141 786.164 624.966 789.533 631.233 787.409C637.481 785.292 640.843 778.501 638.76 772.251L638.766 772.249L636.82 766.51L648.185 762.658L650.149 768.451L650.16 768.447C652.326 774.641 659.1 777.964 665.328 775.853C671.596 773.729 674.966 766.904 672.841 760.636C670.717 754.369 663.892 750.999 657.624 753.123L651.942 755.049L648.09 743.684L653.772 741.758C660.04 739.634 663.41 732.809 661.285 726.541C659.161 720.274 652.336 716.904 646.068 719.028C639.801 721.153 636.431 727.978 638.555 734.245L640.481 739.928L629.116 743.78L627.171 738.04L627.165 738.042C625.019 731.814 618.221 728.467 611.973 730.584C605.706 732.709 602.336 739.533 604.46 745.801C606.585 752.069 613.41 755.439 619.677 753.314L625.36 751.388L629.212 762.753L623.529 764.679C617.262 766.804 613.892 773.628 616.016 779.896ZM629.307 781.727C626.122 782.806 622.779 781.158 621.699 777.97C620.618 774.782 622.27 771.441 625.455 770.362L631.138 768.436L633.064 774.118C634.144 777.306 632.492 780.647 629.307 781.727ZM667.159 762.562C668.239 765.75 666.587 769.091 663.402 770.171C660.217 771.25 656.874 769.602 655.794 766.414L653.868 760.732L659.55 758.806C662.735 757.726 666.078 759.374 667.159 762.562ZM647.994 724.711C651.179 723.631 654.522 725.28 655.603 728.467C656.683 731.655 655.031 734.996 651.846 736.076L646.164 738.002L644.238 732.319C643.157 729.131 644.809 725.79 647.994 724.711ZM610.143 743.875C609.062 740.687 610.714 737.346 613.899 736.267C617.084 735.187 620.427 736.835 621.508 740.023L623.434 745.706L617.751 747.632C614.566 748.711 611.223 747.063 610.143 743.875ZM642.407 745.61L646.259 756.975L634.894 760.827L631.042 749.462L642.407 745.61Z" fill="#4B213B"/>
<path fill-rule="evenodd" clip-rule="evenodd" d="M619.096 630.204C622.936 635.112 624.643 641.222 623.893 647.407C623.143 653.591 620.025 659.116 615.122 662.964L619.234 668.211C625.542 663.264 629.546 656.161 630.511 648.209C631.475 640.258 629.285 632.404 624.342 626.093L619.096 630.204ZM608.598 638.434C610.248 640.531 610.978 643.148 610.656 645.802C610.334 648.455 609 650.822 606.897 652.464L611.007 657.717C614.51 654.972 616.738 651.028 617.274 646.604C617.811 642.18 616.591 637.818 613.846 634.315L608.598 638.434ZM601.13 641.289C600.244 648.599 593.599 653.806 586.289 652.92C578.978 652.033 573.771 645.388 574.658 638.078C575.544 630.768 582.189 625.56 589.499 626.447C596.809 627.333 602.017 633.978 601.13 641.289ZM594.512 640.486C594.069 644.141 590.746 646.745 587.091 646.301C583.436 645.858 580.833 642.536 581.276 638.881C581.719 635.225 585.041 632.622 588.697 633.065C592.352 633.508 594.955 636.831 594.512 640.486ZM603.334 678.491C604.664 667.526 596.853 657.559 585.887 656.229C574.922 654.899 564.955 662.71 563.625 673.675L570.243 674.478C571.13 667.168 577.774 661.96 585.085 662.847C592.395 663.733 597.602 670.378 596.716 677.688L603.334 678.491Z" fill="#4B213B"/>
<path fill-rule="evenodd" clip-rule="evenodd" d="M571.705 282.904L565.632 287.329C563.312 286.222 559.029 283.863 556.603 280.533C554.177 277.203 553.243 272.403 552.901 269.856L558.974 265.431C560.463 264.346 560.79 262.264 559.705 260.775L548.6 245.535C547.515 244.045 545.434 243.719 543.944 244.804L533.612 252.333C532.164 253.388 531.189 254.996 530.94 256.755C530.28 261.456 528.964 277.938 539.785 292.79C550.606 307.641 566.699 311.436 571.379 312.252C571.396 312.254 571.455 312.263 571.472 312.266C573.21 312.539 574.961 312.112 576.401 311.063L586.734 303.534C588.223 302.449 588.55 300.367 587.465 298.878L576.361 283.635C575.276 282.145 573.194 281.818 571.705 282.904ZM545.173 288.861C535.829 276.037 536.971 261.758 537.537 257.72L545.176 252.154L552.355 262.007L547.428 265.596C546.518 266.256 546.005 267.336 546.061 268.459C546.081 268.85 546.604 278.133 551.212 284.458C555.821 290.782 564.497 294.125 564.864 294.263C565.923 294.669 567.1 294.506 568.007 293.842L572.936 290.254L580.115 300.106L572.473 305.672C568.374 304.957 554.486 301.647 545.173 288.861Z" fill="#4B213B"/>
<path fill-rule="evenodd" clip-rule="evenodd" d="M253.516 362.89L272.843 353.056L275.857 358.98L250.606 371.828L243.124 357.123L249.049 354.109L253.516 362.89ZM268.386 333.061C280.267 336.929 287.58 348.347 286.74 360.272C293.966 363.911 297.653 372.378 295.071 380.309C292.221 389.062 282.816 393.847 274.063 390.998L232.859 377.583C222.356 374.164 216.613 362.877 220.032 352.374C223.109 342.923 232.556 337.327 242.07 338.792C248.93 332.491 258.898 329.972 268.386 333.061ZM241.056 345.381L244.221 345.868L246.58 343.702C251.74 338.962 259.214 337.086 266.322 339.4C275.225 342.298 280.72 350.859 280.089 359.803L279.778 364.23L283.741 366.226C288.071 368.407 290.279 373.492 288.732 378.245C287.022 383.497 281.379 386.368 276.127 384.658L234.922 371.244C227.92 368.964 224.092 361.44 226.371 354.438C228.421 348.143 234.718 344.405 241.056 345.381Z" fill="#4B213B"/>
<path fill-rule="evenodd" clip-rule="evenodd" d="M318.335 734.551C315.227 752.667 327.436 769.933 345.551 773.042C363.666 776.15 380.933 763.941 384.042 745.826C387.15 727.711 374.941 710.444 356.826 707.335C338.71 704.227 321.444 716.436 318.335 734.551ZM324.906 735.679C327.392 721.187 341.207 711.419 355.698 713.906C370.19 716.393 379.958 730.207 377.471 744.698C374.984 759.19 361.17 768.958 346.679 766.471C332.187 763.984 322.419 750.17 324.906 735.679ZM345.463 734.133C345.93 731.411 344.103 728.827 341.381 728.36C338.659 727.893 336.074 729.72 335.607 732.442C335.14 735.164 336.968 737.748 339.69 738.215C342.411 738.683 344.996 736.855 345.463 734.133ZM368.419 738.048C368.883 735.339 367.064 732.766 364.355 732.302C361.646 731.837 359.073 733.656 358.609 736.365C358.144 739.074 359.963 741.647 362.672 742.112C365.381 742.576 367.954 740.757 368.419 738.048ZM366.488 749.578L333.634 743.941C333.634 743.941 334.665 757.646 347.806 759.9C360.947 762.155 366.488 749.578 366.488 749.578Z" fill="#4B213B"/>
<path fill-rule="evenodd" clip-rule="evenodd" d="M498.669 741.664C494.255 742.773 489.778 740.093 488.669 735.679C487.56 731.264 490.24 726.787 494.655 725.679C499.069 724.57 503.546 727.25 504.655 731.664C505.763 736.079 503.083 740.556 498.669 741.664ZM478.012 738.355C481.524 752.342 504.021 762.979 504.021 762.979C504.021 762.979 518.824 742.976 515.312 728.988C512.722 718.677 502.289 712.432 491.978 715.022C481.668 717.611 475.423 728.044 478.012 738.355ZM483.34 737.017C481.49 729.649 485.949 722.2 493.317 720.35C500.684 718.5 508.133 722.958 509.983 730.326C511.228 735.284 509.241 742.209 506.037 748.838C504.744 751.515 503.368 753.91 502.213 755.778C500.313 754.677 497.969 753.216 495.564 751.468C489.609 747.139 484.585 741.974 483.34 737.017Z" fill="#4B213B"/>
<path fill-rule="evenodd" clip-rule="evenodd" d="M368.806 336.547L385.214 354.107C384.723 354.915 384.293 355.766 384.001 356.708C382.098 362.854 385.55 369.401 391.696 371.303C397.842 373.205 404.388 369.753 406.291 363.608C408.193 357.462 404.741 350.915 398.595 349.013C395.698 348.116 392.724 348.445 390.173 349.651L373.766 332.091C374.21 331.366 374.588 330.594 374.866 329.752L397.917 324.622C399.344 327.059 401.612 329.01 404.509 329.907C410.655 331.81 417.202 328.358 419.104 322.212C421.006 316.066 417.554 309.52 411.409 307.617C405.263 305.715 398.716 309.167 396.814 315.313C396.522 316.255 396.397 317.2 396.346 318.144L375.044 322.887C374.002 319.208 371.197 316.107 367.284 314.895C361.138 312.993 354.591 316.445 352.689 322.59C350.787 328.736 354.238 335.283 360.384 337.185C363.282 338.082 366.255 337.753 368.806 336.547ZM399.922 361.636C399.107 364.27 396.301 365.749 393.667 364.934C391.034 364.119 389.554 361.313 390.369 358.679C391.184 356.046 393.991 354.566 396.624 355.381C399.258 356.197 400.737 359.003 399.922 361.636ZM412.735 320.241C411.92 322.874 409.114 324.354 406.481 323.539C403.847 322.724 402.368 319.917 403.183 317.284C403.998 314.65 406.804 313.171 409.438 313.986C412.071 314.801 413.551 317.607 412.735 320.241ZM368.61 327.519C367.795 330.152 364.989 331.632 362.355 330.817C359.722 330.002 358.242 327.195 359.057 324.562C359.873 321.928 362.679 320.449 365.312 321.264C367.946 322.079 369.425 324.885 368.61 327.519Z" fill="#4B213B"/>
<path fill-rule="evenodd" clip-rule="evenodd" d="M222.603 531.615L247.425 528.856L262.953 507.068L284.189 505.963L261.621 457.074L239.834 458.207L224.168 480.189L200.1 482.865L222.603 531.615ZM255.107 506.59L246.195 519.095L229.854 483.697L238.767 471.191L255.107 506.59ZM259.668 500.563L274.009 499.817L257.46 463.966L243.395 464.697L243.223 464.938L259.668 500.563ZM226.643 524.458L240.611 522.906L223.998 486.916L210.029 488.468L226.643 524.458Z" fill="#4B213B"/>
<path fill-rule="evenodd" clip-rule="evenodd" d="M780.781 494.413C785.957 495.481 791.039 492.941 793.417 488.511L823.272 494.671L824.619 488.142L794.765 481.982C794.334 476.972 790.672 472.629 785.496 471.561C779.185 470.259 773.014 474.319 771.712 480.629C770.41 486.939 774.47 493.11 780.781 494.413ZM788.035 483.997C787.477 486.701 784.832 488.441 782.128 487.883C779.423 487.325 777.683 484.681 778.241 481.976C778.799 479.272 781.444 477.532 784.149 478.09C786.853 478.648 788.593 481.293 788.035 483.997ZM799.591 518.715C804.767 519.783 809.849 517.244 812.228 512.814L819.23 514.258L820.577 507.729L813.575 506.285C813.144 501.275 809.482 496.931 804.306 495.863C797.996 494.561 791.825 498.621 790.523 504.932C789.221 511.242 793.281 517.413 799.591 518.715ZM800.938 512.186C803.643 512.744 806.287 511.004 806.845 508.3C807.403 505.595 805.663 502.95 802.959 502.392C800.255 501.834 797.61 503.574 797.052 506.279C796.494 508.983 798.234 511.628 800.938 512.186ZM766.168 532.24C772.479 533.542 778.65 529.482 779.952 523.172C781.254 516.861 777.194 510.69 770.884 509.388C765.708 508.32 760.625 510.86 758.247 515.29L751.244 513.845L749.897 520.374L756.9 521.819C757.33 526.828 760.992 531.172 766.168 532.24ZM767.516 525.711C770.22 526.269 772.865 524.529 773.423 521.825C773.981 519.12 772.241 516.475 769.536 515.917C766.832 515.359 764.187 517.099 763.629 519.804C763.071 522.508 764.811 525.153 767.516 525.711ZM816.536 527.317L815.189 533.846L782.543 527.11L783.89 520.581L816.536 527.317ZM755.286 494.257L753.939 500.787L786.584 507.523L787.932 500.993L755.286 494.257ZM759.328 474.67L757.98 481.199L767.774 483.22L769.121 476.691L759.328 474.67Z" fill="#4B213B"/>
<path fill-rule="evenodd" clip-rule="evenodd" d="M641.387 405.839L621.955 406.522C618.068 406.659 614.903 403.602 614.771 399.826L613.635 367.513C611.751 366.264 610.742 364.276 610.669 362.222C610.633 361.178 610.843 360.131 611.361 359.06C614.133 353.687 616.969 348.348 619.874 343.045C621.084 340.954 623.125 339.773 625.44 339.692C627.203 339.63 628.158 340.164 629.498 340.881C631.373 341.888 655.005 354.86 664.958 360.317C665.205 360.453 674.496 365.507 674.732 365.657C676.621 366.953 677.611 368.883 677.683 370.929C677.72 371.97 677.5 373.006 676.975 374.095C674.206 379.47 671.367 384.81 668.462 390.112C666.95 392.722 664.105 393.851 661.64 393.376C660.574 394.064 645.832 404.355 644.671 405.001C643.545 405.63 642.581 405.797 641.387 405.839ZM619.516 376.692L620.323 399.631C620.349 400.392 620.985 400.998 621.759 400.97L634.496 400.523C629.438 392.623 624.442 384.68 619.516 376.692ZM623.854 373.099C624.01 373.349 640.581 399.742 640.712 399.91C641.025 400.285 641.559 400.383 641.984 400.137C642.431 399.866 655.772 390.616 655.772 390.616C653.962 389.632 632.691 377.944 623.854 373.099ZM624.724 345.749C622.332 349.88 616.383 361.399 616.291 361.638C616.114 362.12 616.305 362.655 616.75 362.912C617.32 363.225 662.162 387.851 662.592 387.903C663.014 387.949 663.412 387.749 663.622 387.383C666.082 382.894 671.98 371.663 672.048 371.519C672.222 371.035 672.031 370.5 671.586 370.243C671.016 369.929 626.289 345.432 625.988 345.312C625.481 345.125 624.974 345.343 624.724 345.749ZM629.31 353.078C632.374 352.971 634.949 355.373 635.057 358.435C635.165 361.5 632.765 364.075 629.7 364.183C626.635 364.29 624.06 361.89 623.953 358.826C623.845 355.764 626.245 353.186 629.31 353.078Z" fill="#4B213B"/>
<path fill-rule="evenodd" clip-rule="evenodd" d="M768.213 335.081C766.88 333.984 765.39 333.08 763.797 332.386C760.276 330.851 756.252 330.336 752.314 331C742.19 332.706 735.55 341.849 737.224 351.78C737.818 355.308 739.224 358.518 741.201 361.463C747.335 370.607 758.975 377.234 768.994 382.938C771.879 384.58 774.629 386.146 777.075 387.673C778.886 385.429 780.971 383.048 783.158 380.551C790.755 371.879 799.58 361.803 802.379 351.155C803.282 347.724 803.558 344.231 802.964 340.702C801.29 330.772 792.021 324.309 781.897 326.015C777.959 326.679 774.326 328.483 771.503 331.087C770.225 332.266 769.113 333.608 768.213 335.081ZM775.619 379.028C776.531 377.97 777.466 376.901 778.4 375.833C779.191 374.928 779.981 374.025 780.755 373.131C783.855 369.551 786.871 365.937 789.459 362.246C792.661 357.678 794.896 353.424 795.941 349.421C796.629 346.778 796.8 344.247 796.39 341.81C795.348 335.629 789.618 331.475 783.005 332.589C779.098 333.247 775.738 335.55 773.904 338.555L769.903 345.11L763.975 340.228C761.258 337.99 757.328 336.916 753.422 337.574C746.809 338.688 742.756 344.491 743.798 350.672C744.208 353.109 745.199 355.444 746.716 357.715C749.014 361.155 752.52 364.442 757.043 367.708C760.697 370.347 764.731 372.774 768.833 375.14C769.857 375.731 770.9 376.326 771.943 376.921C773.175 377.624 774.409 378.328 775.619 379.028Z" fill="#4B213B"/>
<path fill-rule="evenodd" clip-rule="evenodd" d="M434 636.69C443.203 636.69 450.69 629.203 450.69 620C450.69 610.797 443.203 603.31 434 603.31C424.797 603.31 417.31 610.797 417.31 620C417.31 629.203 424.797 636.69 434 636.69ZM444.023 620C444.023 625.527 439.527 630.023 434 630.023C428.473 630.023 423.977 625.527 423.977 620C423.977 614.473 428.473 609.977 434 609.977C439.527 609.977 444.023 614.473 444.023 620ZM437.327 643.333V653.333H430.66V643.333H437.327ZM437.327 586.667V596.667H430.66V586.667H437.327ZM410.66 616.667V623.333H400.66V616.667H410.66ZM467.327 616.667V623.333H457.327V616.667H467.327ZM415.133 634.138L419.848 638.851L412.779 645.924L408.064 641.211L415.133 634.138ZM455.208 594.072L459.922 598.786L452.848 605.859L448.134 601.145L455.208 594.072ZM408.07 598.789L412.786 594.076L419.855 601.149L415.139 605.862L408.07 598.789ZM455.205 645.926L448.132 638.853L452.846 634.138L459.919 641.212L455.205 645.926Z" fill="#4B213B"/>
<path fill-rule="evenodd" clip-rule="evenodd" d="M474.906 392.666C471.865 408.642 482.791 424.705 498.768 427.746C514.745 430.786 530.807 419.86 533.848 403.883C536.888 387.907 525.962 371.844 509.986 368.803C494.009 365.763 477.946 376.689 474.906 392.666ZM481.455 393.912C483.819 381.488 496.315 372.988 508.739 375.353C521.163 377.717 529.663 390.213 527.299 402.637C524.934 415.061 512.438 423.561 500.014 421.196C487.591 418.832 479.09 406.336 481.455 393.912ZM510.767 382.525L504.218 381.279L500.479 400.926L520.126 404.665L521.373 398.116L508.275 395.623L510.767 382.525ZM532.977 367.379L540.962 379.081L535.455 382.839L527.47 371.137L532.977 367.379ZM481.145 372.496L477.388 366.989L489.049 359.033L492.806 364.54L481.145 372.496Z" fill="#4B213B"/>
</g>
<defs>
<clipPath id="clip0_161_3112">
<rect width="1024" height="1024"/>
</clipPath>
</defs>
</svg>
