<svg width="56" height="50" viewBox="0 0 56 50" fill="none" xmlns="http://www.w3.org/2000/svg">
<g clip-path="url(#clip0)">
<path d="M20 5H15V31.4C13.4876 30.4968 11.7615 30.0135 10 30C8.02219 30 6.0888 30.5865 4.4443 31.6853C2.79981 32.7841 1.51809 34.3459 0.761209 36.1732C0.00433278 38.0004 -0.1937 40.0111 0.192152 41.9509C0.578004 43.8907 1.53041 45.6725 2.92894 47.0711C4.32746 48.4696 6.10929 49.422 8.0491 49.8079C9.98891 50.1937 11.9996 49.9957 13.8268 49.2388C15.6541 48.4819 17.2159 47.2002 18.3147 45.5557C19.4135 43.9112 20 41.9778 20 40V5Z" fill="black"/>
<path d="M56 5H51V31.4C49.4876 30.4968 47.7615 30.0135 46 30C44.0222 30 42.0888 30.5865 40.4443 31.6853C38.7998 32.7841 37.5181 34.3459 36.7612 36.1732C36.0043 38.0004 35.8063 40.0111 36.1922 41.9509C36.578 43.8907 37.5304 45.6725 38.9289 47.0711C40.3275 48.4696 42.1093 49.422 44.0491 49.8079C45.9889 50.1937 47.9996 49.9957 49.8268 49.2388C51.6541 48.4819 53.2159 47.2002 54.3147 45.5557C55.4135 43.9112 56 41.9778 56 40V5ZM46 45C45.0111 45 44.0444 44.7068 43.2222 44.1573C42.3999 43.6079 41.759 42.827 41.3806 41.9134C41.0022 40.9998 40.9032 39.9945 41.0961 39.0245C41.289 38.0546 41.7652 37.1637 42.4645 36.4645C43.1637 35.7652 44.0547 35.289 45.0246 35.0961C45.9945 34.9031 46.9998 35.0022 47.9134 35.3806C48.827 35.759 49.6079 36.3999 50.1573 37.2221C50.7068 38.0444 51 39.0111 51 40C51 41.3261 50.4732 42.5979 49.5355 43.5355C48.5979 44.4732 47.3261 45 46 45Z" fill="black"/>
<path d="M46.0001 45C45.0111 45 44.0444 44.7067 43.2221 44.1573C42.3998 43.608 41.7591 42.827 41.3808 41.9133C41.0021 41 40.9031 39.9946 41.0961 39.0246C41.2891 38.0547 41.7651 37.1638 42.4644 36.4645C43.1638 35.7652 44.0548 35.289 45.0244 35.0961C45.9944 34.9031 46.9997 35.0022 47.9134 35.3806C48.827 35.759 49.608 36.3999 50.1573 37.2222C50.7067 38.0444 51 39.011 51 40C51 41.326 50.473 42.598 49.5354 43.5357C48.5977 44.4733 47.326 45 46.0001 45Z" fill="#ED407A"/>
<path d="M15 3C15 1.34315 16.3431 0 18 0H53C54.6569 0 56 1.34315 56 3V5H15V3Z" fill="black"/>
</g>
<defs>
<clipPath id="clip0">
<rect width="56" height="50" fill="white"/>
</clipPath>
</defs>
</svg>
