<svg width="36" height="36" viewBox="0 0 36 36" fill="none" xmlns="http://www.w3.org/2000/svg">
<path d="M17.3262 17.3776L3.1322 32.4436C3.13274 32.4467 3.1338 32.4493 3.1343 32.4525C3.56962 34.0885 5.0639 35.2931 6.8373 35.2931C7.54622 35.2931 8.2118 35.1015 8.7826 34.765L8.82793 34.7384L24.8059 25.5184L17.3262 17.3776Z" fill="#EB3131"/>
<path d="M31.6873 14.8125L31.6737 14.8032L24.7755 10.8042L17.0038 17.7198L24.8025 25.5175L31.6643 21.5583C32.8673 20.9088 33.684 19.6406 33.684 18.1781C33.684 16.7261 32.8784 15.4641 31.6873 14.8125Z" fill="#F6B60B"/>
<path d="M3.13018 3.84863C3.04485 4.16329 3 4.49288 3 4.83514V31.4581C3 31.7998 3.04432 32.1305 3.13072 32.444L17.8147 17.763L3.13018 3.84863Z" fill="#5778C5"/>
<path d="M17.4313 18.1465L24.7786 10.8014L8.81856 1.54799C8.23844 1.20053 7.56136 1 6.83686 1C5.06346 1 3.56716 2.2068 3.13176 3.8447C3.13123 3.8463 3.13123 3.8474 3.13123 3.8488L17.4313 18.1465Z" fill="#3BAD49"/>
</svg>
