<svg
    xmlns="http://www.w3.org/2000/svg"
    viewBox="0 0 465 529"
    id="vector">
    <path
        id="path"
        d="M 346.24 184.05 C 336.24 208.96 323.32 233.85 309.57 258.76 C 295.483 239.941 274.498 227.45 251.239 224.038 C 227.981 220.626 204.292 226.564 185.394 240.544 C 166.495 254.524 153.884 275.437 150.339 298.676 C 146.795 321.914 152.598 345.636 166.469 364.614 C 180.341 383.593 201.182 396.323 224.4 400 C 227.03 400.41 229.69 400.7 232.4 400.88 C 205.16 402.7 139.47 408.76 98.4 430.38 C 64.712 448.151 35.279 473.026 12.14 503.28 C 27.669 428.987 38.087 353.718 43.32 278 C 48.517 202.524 48.551 126.781 43.42 51.3 C 53.114 81.024 68.098 108.753 87.65 133.15 C 98.561 146.723 110.828 159.147 124.26 170.23 Q 126.72 177.14 129.48 184.06 C 156.48 158.56 195.02 142.6 237.86 142.6 C 280.7 142.6 319.28 158.55 346.24 184.05 Z"
        fill="#0664ed"
        fill-rule="evenodd"/>
    <path
        id="path_1"
        d="M 0 529.94 L 5.8 502 C 21.23 427.98 31.588 352.992 36.8 277.56 C 41.96 202.379 41.99 126.935 36.89 51.75 L 33.43 0 L 49.58 49.27 C 64.261 94.65 91.61 134.904 128.39 165.27 L 129.77 166.41 L 130.37 168.1 C 130.97 169.77 131.57 171.43 132.18 173.1 C 160.62 149.55 198.59 136.2 237.86 136.2 C 280.52 136.2 321.65 151.96 350.7 179.43 L 353.91 182.43 L 352.26 186.53 C 341.46 213.47 327.49 239.77 315.26 261.95 L 310.42 270.73 L 304.42 262.73 C 296.762 252.422 286.789 244.055 275.307 238.306 C 263.825 232.557 251.151 229.585 238.31 229.63 C 225.358 229.661 212.592 232.725 201.038 238.577 C 189.483 244.429 179.459 252.907 171.77 263.33 C 160.557 278.616 154.944 297.306 155.881 316.241 C 156.817 335.175 164.247 353.22 176.913 367.325 C 189.579 381.43 206.725 390.75 225.45 393.71 C 227.88 394.08 230.38 394.36 232.86 394.52 L 232.86 407.46 C 200.04 409.65 139.32 416.3 101.5 436.22 C 68.666 453.59 39.966 477.848 17.37 507.33 Z M 50.8 90.09 C 53.607 153.082 52.849 216.183 48.53 279.09 C 43.856 346.693 35.08 413.951 22.25 480.49 C 42.961 458.203 67.27 439.553 94.16 425.32 C 122.44 410.42 162.16 402.6 194.96 398.5 C 175.583 389.006 159.984 373.22 150.722 353.731 C 141.46 334.242 139.072 312.178 143.948 291.158 C 148.824 270.139 160.683 251.38 177.58 237.959 C 194.476 224.539 215.432 217.233 237.01 217.24 C 264.01 217.24 287.26 231.64 305.31 251.24 C 315.51 232.5 328.31 208 337.31 186.41 C 310.8 163 274.41 149.7 236.61 149.7 C 197.23 149.7 159.35 164.17 132.69 189.39 L 125.8 195.94 L 122.25 187.09 C 120.67 183.14 119.08 178.98 117.54 174.7 C 89.681 151.417 66.954 122.605 50.8 90.09 Z"
        fill="#000000"
        fill-rule="evenodd"/>
    <path
        id="path_2"
        d="M 237.86 400.57 L 232.4 400.91 C 229.69 400.73 227.03 400.44 224.4 400.03 Q 231.04 400.57 237.86 400.57 Z"
        fill="#0664ed"
        fill-rule="evenodd"/>
    <path
        id="path_3"
        d="M 236.28 400.41 C 233.04 402.03 218.83 400.41 214.41 400.03 C 191.196 396.35 170.36 383.62 156.491 364.644 C 142.623 345.668 136.82 321.951 140.362 298.715 C 143.904 275.48 156.51 254.569 175.403 240.587 C 194.296 226.606 217.978 220.662 241.234 224.066 C 264.49 227.47 285.476 239.951 299.57 258.76 C 313.32 233.85 326.26 208.96 336.24 184.05 Q 339.01 177.15 341.46 170.22 C 354.898 159.14 367.169 146.715 378.08 133.14 C 397.628 108.741 412.612 81.012 422.31 51.29 C 412.021 202.675 422.529 354.758 453.54 503.29 C 430.399 473.038 400.966 448.164 367.28 430.39 C 326.45 408.87 261.18 402.76 233.72 400.92"
        fill="#bc2634"
        fill-rule="evenodd"/>
    <path
        id="path_4"
        d="M 465.73 529.94 L 448.39 507.25 C 425.791 477.766 397.088 453.509 364.25 436.14 C 326.8 416.38 266.9 409.7 234.04 407.47 C 230.04 407.82 224.38 407.47 216.23 406.71 L 213.88 406.5 L 213.4 406.44 C 189.152 402.609 167.291 389.574 152.394 370.063 C 137.496 350.552 130.679 326.03 133.37 301.63 C 136.061 277.229 148.059 254.782 166.85 238.987 C 185.642 223.192 209.819 215.234 234.318 216.78 C 258.818 218.325 281.802 229.258 298.46 247.29 C 309.31 227.29 321 204.65 330.22 181.64 C 331.96 177.32 333.68 172.75 335.35 168.05 L 335.95 166.36 L 337.34 165.22 C 374.112 134.846 401.458 94.595 416.15 49.22 L 432.3 0 L 428.8 51.73 C 418.541 202.535 429.002 354.036 459.89 502 Z M 234.15 394.47 C 267.87 396.72 330.39 403.63 370.3 424.67 C 397.191 438.897 421.5 457.544 442.21 479.83 C 417.398 351.283 407.819 220.259 413.67 89.47 C 397.516 121.974 374.804 150.784 346.97 174.08 C 345.43 178.35 343.85 182.51 342.26 186.47 C 331.46 213.41 317.49 239.71 305.26 261.89 L 300.42 270.67 L 294.42 262.67 C 286.762 252.362 276.789 243.995 265.307 238.246 C 253.825 232.497 241.151 229.525 228.31 229.57 C 215.358 229.601 202.592 232.665 191.038 238.517 C 179.483 244.369 169.459 252.847 161.77 263.27 C 150.574 278.534 144.961 297.194 145.879 316.102 C 146.797 335.009 154.19 353.038 166.812 367.146 C 179.433 381.254 196.531 390.601 215.22 393.61 L 217.47 393.81 C 226.67 394.67 232.19 394.87 233.89 394.44 C 233.727 394.487 233.57 394.55 233.42 394.63 L 234.09 395.97 Z"
        fill="#000000"
        fill-rule="evenodd"/>
    <path
        id="path_5"
        d="M 102.8 431.49"
        fill="#00000000"
        stroke="#0664ed"
        stroke-width="8"
        fill-rule="evenodd"/>
</svg>
