<svg width="128" height="128" viewBox="0 0 128 128" fill="none" xmlns="http://www.w3.org/2000/svg">
<g filter="url(#filter0_d)">
<path fill-rule="evenodd" clip-rule="evenodd" d="M78.0416 56.8016L90.7433 34.9172C92.1037 32.5735 91.4009 29.6781 89.0245 28.4014C86.6479 27.1246 83.5322 27.9673 82.101 30.2741L77.59 37.5445C78.967 35.2093 78.2477 32.3056 75.8711 31.0288C73.4946 29.752 70.3789 30.5946 68.9476 32.9015L50.6665 62.3657C47.087 57.2271 50.4788 54.3676 45.6757 50.3194C42.6153 47.7398 37.7197 48.8815 37.8793 51.3212C37.9924 53.0477 38.8612 55.4922 37.8661 60.7516C35.8747 71.2785 45.4298 73.9009 40.0275 82.6081L70.2754 98.8586C73.279 94.0176 79.1634 90.7245 82.167 85.8836C84.9536 81.3923 86.6993 78.5787 89.4859 74.0875C93.22 68.069 87.3318 62.6912 84.0068 63.5905C84.7082 59.8202 81.3126 56.3779 78.0416 56.8016V56.8016Z" fill="#FFDCD5"/>
<path fill-rule="evenodd" clip-rule="evenodd" d="M70.2758 98.8586L40.0278 82.608L38.5327 81.8048L33.328 90.1933L66.5663 108.05L71.7709 99.6618L70.2758 98.8586Z" fill="#FF9346"/>
<path d="M83.6696 86.6907L90.9886 74.8944C93.0854 71.515 92.875 67.7481 90.4261 64.8179C89.1474 63.2884 87.463 62.2813 85.8161 61.9759C85.7071 60.7021 85.2445 59.4503 84.4322 58.3139C83.4898 56.996 82.176 56.0307 80.7493 55.5334L92.2698 35.6843C94.1066 32.5195 93.062 28.7064 89.8917 27.0032C86.6807 25.2781 82.5117 26.3833 80.5985 29.4669L79.1234 31.8443C78.5666 30.9507 77.7642 30.1819 76.7383 29.6307C73.5273 27.9056 69.3584 29.0107 67.4451 32.0943L50.8349 58.8655C50.5766 57.9804 50.4939 57.1482 50.4089 56.2909C50.1976 54.1626 49.9583 51.7507 46.8404 49.1228C44.1992 46.8968 40.7385 46.8923 38.6403 47.8302C36.9809 48.572 36.049 49.9136 36.1475 51.4192C36.1767 51.8633 36.2455 52.3268 36.3185 52.8174C36.5574 54.425 36.8849 56.6265 36.1576 60.4715C35.1444 65.8269 36.8971 69.431 38.3055 72.327C39.663 75.1184 40.6904 77.2311 39.2974 80.3577C38.4846 79.9849 37.4897 80.2566 37.03 80.9975L31.8254 89.386C31.3464 90.158 31.6307 91.1455 32.4604 91.5912L65.6986 109.448C66.5283 109.894 67.5895 109.629 68.0685 108.857L73.2731 100.469C73.7346 99.7251 73.486 98.7829 72.7255 98.3162C74.0308 96.6418 75.6951 95.1169 77.438 93.5218C79.7054 91.4468 82.05 89.3011 83.6696 86.6907V86.6907ZM65.9312 105.845L35.698 89.6024L39.1678 84.0101L47.5227 88.4987C48.3524 88.9445 49.4136 88.6799 49.8926 87.9078C50.3716 87.1358 50.0873 86.1483 49.2576 85.7026L42.3237 81.9774C44.5611 77.3626 42.9914 74.1305 41.4671 70.9961C40.1301 68.2471 38.7476 65.4046 39.575 61.0316C40.397 56.6867 40.0111 54.0922 39.7556 52.3751C39.6894 51.9289 39.6321 51.5437 39.6112 51.2232C39.596 50.9923 40.0869 50.766 40.143 50.7409C41.2354 50.2524 43.1375 50.3575 44.5112 51.5159C46.6277 53.2998 46.7574 54.6078 46.9539 56.5878C47.1106 58.1672 47.3015 60.0915 48.6546 62.38L48.2966 62.9568C47.8176 63.7289 48.102 64.7164 48.9317 65.1621C49.7613 65.6078 50.8225 65.3432 51.3015 64.5712L70.4502 33.7087C71.4067 32.167 73.4494 31.592 75.0037 32.427C76.5218 33.2426 76.9997 35.1899 76.0691 36.7681L65.0294 55.4897C64.5748 56.2608 64.8678 57.2263 65.6824 57.664C65.6934 57.6699 65.7046 57.6757 65.7159 57.6816C66.5558 58.1105 67.6105 57.8245 68.0715 57.0428L79.1037 38.3339L83.6035 31.0813C84.5601 29.5395 86.6029 28.9645 88.1571 29.7995C89.6895 30.6228 90.1549 32.5337 89.217 34.1501L74.0206 60.3325C73.5733 61.1032 73.8689 62.0622 74.6789 62.4973C74.6933 62.5051 74.7078 62.5127 74.7227 62.5201C75.5658 62.9438 76.6182 62.6511 77.0736 61.8668L79.069 58.4288C79.9741 58.5952 80.9029 59.2068 81.5434 60.1024C82.5805 61.5531 82.6328 63.3323 81.6836 64.8623C81.2046 65.6343 81.4889 66.6218 82.3186 67.0675C83.1482 67.5132 84.2095 67.2486 84.6885 66.4766C84.9491 66.0565 85.1655 65.6251 85.3377 65.1865C86.0599 65.3825 86.9596 65.9296 87.6872 66.8003C88.4321 67.6917 89.9524 70.1073 87.9839 73.2801L80.6649 85.0764C79.2809 87.3069 77.2041 89.2078 75.0051 91.2202C73.1443 92.9233 71.2325 94.675 69.7112 96.6912L62.7798 92.9673C61.9502 92.5216 60.8889 92.7862 60.4099 93.5582C59.9309 94.3302 60.2153 95.3177 61.0449 95.7635L69.4011 100.253L65.9313 105.845L65.9312 105.845Z" fill="black"/>
<path d="M56.0192 89.3352L56.018 89.3346C55.1883 88.8888 54.1277 89.1538 53.6487 89.9258C53.1697 90.6978 53.4545 91.6856 54.2843 92.1314C55.1141 92.5772 56.1752 92.3125 56.6542 91.5405C57.1332 90.7685 56.8488 89.7809 56.0192 89.3352V89.3352Z" fill="black"/>
</g>
<g filter="url(#filter1_d)">
<path d="M81.2347 9.9837C72.2174 6.22579 61.6447 7.4988 54 13.2629L57.3955 16.2891C63.4209 11.9533 71.5394 10.9313 78.623 13.6168L74.0776 14.9036L75.4668 19L88 15.4548L84.1211 4L79.639 5.26537L81.2347 9.9837Z" fill="#FF9346"/>
</g>
<g filter="url(#filter2_d)">
<path d="M50 31C55.5228 31 60 26.5803 60 21C60 15.4197 55.5829 11 50 11C44.4171 11 40 15.4772 40 21C40 26.5228 44.4772 31 50 31Z" fill="#FFCC80"/>
</g>
<path d="M50 28C53.866 28 57 24.866 57 21C57 17.134 53.866 14 50 14C46.134 14 43 17.134 43 21C43 24.866 46.134 28 50 28Z" fill="#FFB74D"/>
<path d="M50 25C52.2091 25 54 23.2091 54 21C54 18.7909 52.2091 17 50 17C47.7909 17 46 18.7909 46 21C46 23.2091 47.7909 25 50 25Z" fill="#FF9346"/>
<defs>
<filter id="filter0_d" x="23.5927" y="22.1887" width="77.5814" height="99.4761" filterUnits="userSpaceOnUse" color-interpolation-filters="sRGB">
<feFlood flood-opacity="0" result="BackgroundImageFix"/>
<feColorMatrix in="SourceAlpha" type="matrix" values="0 0 0 0 0 0 0 0 0 0 0 0 0 0 0 0 0 0 127 0"/>
<feOffset dy="4"/>
<feGaussianBlur stdDeviation="4"/>
<feColorMatrix type="matrix" values="0 0 0 0 0 0 0 0 0 0 0 0 0 0 0 0 0 0 0.5 0"/>
<feBlend mode="normal" in2="BackgroundImageFix" result="effect1_dropShadow"/>
<feBlend mode="normal" in="SourceGraphic" in2="effect1_dropShadow" result="shape"/>
</filter>
<filter id="filter1_d" x="53" y="4" width="36" height="17" filterUnits="userSpaceOnUse" color-interpolation-filters="sRGB">
<feFlood flood-opacity="0" result="BackgroundImageFix"/>
<feColorMatrix in="SourceAlpha" type="matrix" values="0 0 0 0 0 0 0 0 0 0 0 0 0 0 0 0 0 0 127 0"/>
<feOffset dy="1"/>
<feGaussianBlur stdDeviation="0.5"/>
<feColorMatrix type="matrix" values="0 0 0 0 0 0 0 0 0 0 0 0 0 0 0 0 0 0 0.25 0"/>
<feBlend mode="normal" in2="BackgroundImageFix" result="effect1_dropShadow"/>
<feBlend mode="normal" in="SourceGraphic" in2="effect1_dropShadow" result="shape"/>
</filter>
<filter id="filter2_d" x="38" y="11" width="24" height="24" filterUnits="userSpaceOnUse" color-interpolation-filters="sRGB">
<feFlood flood-opacity="0" result="BackgroundImageFix"/>
<feColorMatrix in="SourceAlpha" type="matrix" values="0 0 0 0 0 0 0 0 0 0 0 0 0 0 0 0 0 0 127 0"/>
<feOffset dy="2"/>
<feGaussianBlur stdDeviation="1"/>
<feColorMatrix type="matrix" values="0 0 0 0 0 0 0 0 0 0 0 0 0 0 0 0 0 0 0.25 0"/>
<feBlend mode="normal" in2="BackgroundImageFix" result="effect1_dropShadow"/>
<feBlend mode="normal" in="SourceGraphic" in2="effect1_dropShadow" result="shape"/>
</filter>
</defs>
</svg>
